#!OML:ASF F:\VICON\USERDATA\INSTALL\Justin_Nancy\Justin_Nancy.ASF
:FULLY-SPECIFIED
:DEGREES
34
root 0.63024 15.7358 -25.8748 21.0496 -5.85478 2.22014
lowerback 13.0988 0.785856 -5.68137
upperback 2.33126 0.228578 -0.342144
thorax -4.90639 0.196066 2.81016
lowerneck -19.144 -4.00902 -9.61826
upperneck 1.78442 -4.10288 12.5912
head 4.09276 -1.41096 5.15543
rclavicle 1.98785e-015 1.39149e-015
rhumerus -47.088 -1.55092 -86.4074
rradius 72.008
rwrist -10.4362
rhand -28.7175 36.4897
rfingers 7.12502
rthumb -2.07884 6.52011
lclavicle 1.98785e-015 1.39149e-015
lhumerus -34.6366 -8.14237 84.0147
lradius 90.4774
lwrist 21.4486
lhand -22.0075 16.3431
lfingers 7.12502
lthumb 4.40156 46.2774
rfemur -32.7451 6.54993 15.8641
rtibia 87.2766
rfoot 4.63682 9.35469
rtoes -19.7894
lfemur -33.8897 -2.3521 -23.575
ltibia 62.9102
lfoot -31.6339 3.32594
ltoes -26.6155
35
root 0.628996 15.7102 -25.6358 20.9184 -5.32616 2.24185
lowerback 13.6447 0.5473 -5.48609
upperback 2.47394 -0.07854 -0.158504
thorax -5.02783 0.0443894 2.9483
lowerneck -19.6907 -3.99445 -9.65739
upperneck 1.56657 -4.00709 12.5282
head 4.09677 -1.35295 5.1503
rclavicle -6.95746e-016 1.56046e-014
rhumerus -49.0172 -2.06252 -85.3243
rradius 73.2051
rwrist -12.2728
rhand -28.335 36.7816
rfingers 7.12502
rthumb -1.7095 6.80872
lclavicle -6.95746e-016 1.56046e-014
lhumerus -32.6648 -8.61501 83.9279
lradius 92.2588
lwrist 21.8727
lhand -21.5193 17.2959
lfingers 7.12502
lthumb 4.87298 47.2198
rfemur -35.0731 5.70703 15.784
rtibia 89.7246
rfoot 3.43448 9.27347
rtoes -20.9621
lfemur -32.3008 -3.06831 -23.5011
ltibia 61.8066
lfoot -31.6648 3.37011
ltoes -25.8701
36
root 0.626333 15.713 -25.3761 20.7965 -5.08078 2.39181
lowerback 14.1327 0.388976 -5.60144
upperback 2.53405 -0.323286 0.00594534
thorax -5.20757 -0.0684502 3.23465
lowerneck -19.7876 -3.83082 -9.57867
upperneck 1.13191 -3.74222 12.2676
head 3.93772 -1.23883 5.0781
rclavicle -1.70955e-014 6.80837e-015
rhumerus -51.1486 -2.25123 -84.2899
rradius 74.8026
rwrist -13.3898
rhand -27.7823 37.7114
rfingers 7.12502
rthumb -1.17569 7.73485
lclavicle -1.70955e-014 6.80837e-015
lhumerus -31.0418 -8.94303 83.9415
lradius 94.38
lwrist 22.3221
lhand -20.0583 20.0291
lfingers 7.12502
lthumb 6.28356 49.9159
rfemur -37.9229 4.91692 15.5253
rtibia 91.7715
rfoot 2.56277 8.86786
rtoes -21.6331
lfemur -30.4435 -3.62321 -23.6906
ltibia 60.3938
lfoot -31.5081 3.52213
ltoes -24.8463
37
root 0.623537 15.7449 -25.0967 20.8316 -4.95365 2.49338
lowerback 14.357 0.252007 -5.69125
upperback 2.61763 -0.520494 0.137948
thorax -5.22019 -0.163784 3.46355
lowerneck -19.8669 -3.65377 -9.37974
upperneck 0.611817 -3.48245 11.9647
head 3.74823 -1.12974 4.9715
rclavicle -2.73329e-016 -1.2921e-015
rhumerus -53.0639 -2.37326 -83.4104
rradius 76.2957
rwrist -13.4019
rhand -28.0414 38.6885
rfingers 7.12502
rthumb -1.42586 8.71348
lclavicle -2.73329e-016 -1.2921e-015
lhumerus -29.4015 -9.15757 83.8847
lradius 96.607
lwrist 22.8039
lhand -19.1429 22.0946
lfingers 7.12502
lthumb 7.16721 51.9532
rfemur -40.7488 4.2067 15.297
rtibia 93.3009
rfoot 1.64967 8.32366
rtoes -20.0336
lfemur -28.5022 -4.05007 -23.9078
ltibia 58.7938
lfoot -31.4638 4.05221
ltoes -25.2441
38
root 0.621388 15.7776 -24.8099 20.8979 -4.68068 2.52929
lowerback 14.4746 -0.0206254 -5.75332
upperback 2.74216 -0.873072 0.443912
thorax -5.10979 -0.33927 3.8891
lowerneck -20.1769 -3.43629 -9.29638
upperneck 0.246528 -3.13362 11.5981
head 3.63183 -0.971745 4.87271
rclavicle 6.06293e-015 -7.50412e-015
rhumerus -54.9525 -1.93163 -82.4622
rradius 78.0294
rwrist -12.8298
rhand -28.8341 38.8478
rfingers 7.12502
rthumb -2.19146 8.87932
lclavicle 6.06293e-015 -7.50412e-015
lhumerus -27.8771 -8.78217 84.0341
lradius 99.0165
lwrist 23.4822
lhand -19.6299 20.0953
lfingers 7.12502
lthumb 6.69712 49.9694
rfemur -43.1919 3.29799 15.2298
rtibia 94.4672
rfoot 0.447415 7.9164
rtoes -14.545
lfemur -26.5869 -4.55583 -24.0173
ltibia 57.0859
lfoot -31.1109 4.16221
ltoes -25.5888
39
root 0.61219 15.8048 -24.5208 21.1444 -4.26659 2.64462
lowerback 14.4134 -0.387688 -5.90149
upperback 2.7815 -1.3512 0.796687
thorax -4.96895 -0.574523 4.43299
lowerneck -20.5251 -3.18173 -9.26767
upperneck -0.00772137 -2.73044 11.2389
head 3.55155 -0.784296 4.79074
rclavicle 4.47266e-015 1.87355e-014
rhumerus -56.8664 -1.21521 -81.5405
rradius 80.0143
rwrist -11.9856
rhand -28.9858 38.7677
rfingers 7.12502
rthumb -2.338 8.80076
lclavicle 4.47266e-015 1.87355e-014
lhumerus -26.5077 -8.29533 84.3133
lradius 101.512
lwrist 24.2723
lhand -19.7601 17.7718
lfingers 7.12502
lthumb 6.57145 47.6498
rfemur -45.8778 2.19658 15.1961
rtibia 95.358
rfoot -0.809794 7.57166
rtoes -10.9105
lfemur -24.9317 -5.13827 -24.1165
ltibia 55.3379
lfoot -30.4965 4.12461
ltoes -25.3352
